<svg width="1200" height="630" viewBox="0 0 1200 630" fill="none" xmlns="http://www.w3.org/2000/svg">
  <rect width="1200" height="630" fill="#FFF7DE"/>
  <circle cx="172" cy="120" r="144" fill="#F4C94F" opacity="0.23"/>
  <circle cx="1045" cy="130" r="118" fill="#6FA541" opacity="0.16"/>
  <circle cx="940" cy="510" r="138" fill="#F4C94F" opacity="0.18"/>
  <rect x="84" y="88" width="1032" height="454" rx="40" fill="#FFFCF1" stroke="#E8D7A2" stroke-width="4"/>
  <path d="M277 175C288 190 295 209 297 232C303 299 256 396 185 455C124 507 56 525 13 503C60 517 127 494 186 444C250 390 291 302 287 240C286 217 282 196 277 175Z" fill="#F2C44D"/>
  <path d="M251 158C272 155 291 161 310 180C307 193 300 204 288 211C269 202 256 186 251 158Z" fill="#6FA541"/>
  <text x="392" y="248" fill="#453416" font-family="Avenir Next, Helvetica, sans-serif" font-size="78" font-weight="700">
    Banana Cleaner
  </text>
  <text x="392" y="320" fill="#6A5632" font-family="Avenir Next, Helvetica, sans-serif" font-size="34">
    A local-first Gemini watermark remover for Cloudflare Pages.
  </text>
  <text x="392" y="378" fill="#7A6744" font-family="Avenir Next, Helvetica, sans-serif" font-size="28">
    Batch upload · Browser-only processing · Preview · ZIP download
  </text>
  <rect x="392" y="424" width="260" height="54" rx="27" fill="#F4C94F"/>
  <text x="426" y="459" fill="#3B2C11" font-family="Avenir Next, Helvetica, sans-serif" font-size="24" font-weight="700">
    Open source ready
  </text>
</svg>
